<svg width="23" height="22" viewBox="0 0 23 22" fill="#569bda" xmlns="http://www.w3.org/2000/svg">
<path d="M0.58606 0.586121C1.36711 -0.194905 2.63314 -0.19492 3.41418 0.586121L11.2072 8.37909L18.7208 0.865417C19.5019 0.0843689 20.7679 0.0843689 21.549 0.865417C22.3299 1.64647 22.33 2.91253 21.549 3.69354L14.0353 11.2072L21.0919 18.2639C21.8727 19.0449 21.8729 20.311 21.0919 21.092C20.311 21.8729 19.0449 21.8728 18.2638 21.092L11.2072 14.0353L3.87122 21.3713C3.09018 22.1521 1.82408 22.1522 1.04309 21.3713C0.262106 20.5903 0.262233 19.3242 1.04309 18.5432L8.37903 11.2072L0.58606 3.41425C-0.194989 2.6332 -0.194989 1.36717 0.58606 0.586121Z" />
</svg>
