<svg width="50" height="50" viewBox="0 0 50 50" fill="none" xmlns="http://www.w3.org/2000/svg">
<path d="M25 0C38.8071 0 50 11.1929 50 25C50 38.8071 38.8071 50 25 50C11.1929 50 0 38.8071 0 25C0 11.1929 11.1929 0 25 0ZM25 5C13.9543 5 5 13.9543 5 25C5 36.0457 13.9543 45 25 45C36.0457 45 45 36.0457 45 25C45 13.9543 36.0457 5 25 5ZM24.9092 33.0908C25.4697 33.0908 25.951 33.2919 26.3525 33.6934C26.7539 34.0948 26.9541 34.5762 26.9541 35.1367C26.954 35.5077 26.8602 35.8487 26.6709 36.1592C26.4891 36.4698 26.2422 36.7198 25.9316 36.9092C25.6287 37.0909 25.2879 37.1816 24.9092 37.1816C24.3486 37.1816 23.8673 36.9806 23.4658 36.5791C23.0646 36.1777 22.8634 35.697 22.8633 35.1367C22.8633 34.5762 23.0644 34.0948 23.4658 33.6934C23.8673 33.2918 24.3486 33.0908 24.9092 33.0908ZM25.5459 13.4092C26.8789 13.4092 28.0378 13.674 29.0225 14.2041C30.0149 14.7344 30.7805 15.4625 31.3184 16.3867C31.8637 17.3109 32.1367 18.3642 32.1367 19.5459C32.1367 20.379 32.0075 21.1326 31.75 21.8066C31.5 22.4808 31.1363 23.083 30.6592 23.6133C30.1895 24.1436 29.6208 24.6134 28.9541 25.0225C28.2876 25.439 27.754 25.8788 27.3525 26.3408C26.9511 26.7953 26.6594 27.3371 26.4775 27.9658C26.2957 28.5946 26.1968 29.379 26.1816 30.3184V30.4541H23.4541V30.3184C23.4693 28.8714 23.6213 27.7193 23.9092 26.8633C24.1971 26.0074 24.6065 25.3144 25.1367 24.7842C25.667 24.2539 26.3035 23.7653 27.0459 23.3184C27.4927 23.0457 27.894 22.7236 28.25 22.3525C28.606 21.9739 28.8863 21.5382 29.0908 21.0459C29.3029 20.5535 29.4092 20.0076 29.4092 19.4092C29.4092 18.6669 29.2351 18.0229 28.8867 17.4775C28.5382 16.9321 28.0716 16.5113 27.4883 16.2158C26.9052 15.9205 26.2577 15.7725 25.5459 15.7725C24.9247 15.7725 24.3258 15.9016 23.75 16.1592C23.1743 16.4168 22.693 16.822 22.3066 17.375C21.9203 17.928 21.6973 18.652 21.6367 19.5459H18.7725C18.8331 18.258 19.1664 17.1549 19.7725 16.2383C20.3861 15.3217 21.1934 14.6215 22.1934 14.1367C23.2009 13.6519 24.3186 13.4092 25.5459 13.4092Z" fill="white"/>
</svg>
