<svg width="100" height="100" viewBox="0 0 100 100" fill="none" xmlns="http://www.w3.org/2000/svg">
<path fill="#569bda" opacity="0.3" d="M50 0C77.6142 0 100 22.3858 100 50C100 77.6142 77.6142 100 50 100C22.3858 100 0 77.6142 0 50C0 22.3858 22.3858 0 50 0ZM49.5 13C28.7893 13 12 29.7893 12 50.5C12 71.2107 28.7893 88 49.5 88C70.2107 88 87 71.2107 87 50.5C87 29.7893 70.2107 13 49.5 13Z" />
<path fill="#569bda" d="M50.8633 99.9912C50.5761 99.9961 50.2883 100 50 100C49.7113 100 49.4233 99.9961 49.1357 99.9912C49.4236 99.9962 49.7117 100 50 100C50.288 100 50.5757 99.9962 50.8633 99.9912ZM18.71 88.9961C19.8399 89.9027 21.0104 90.7639 22.2217 91.5732C29.9236 96.7195 38.8929 99.6175 48.125 99.9639C37.009 99.554 26.8224 95.5138 18.71 88.9961ZM81.2891 88.9961C73.1765 95.5137 62.9902 99.5543 51.874 99.9639C61.1065 99.6177 70.0761 96.7197 77.7783 91.5732C78.9893 90.7641 80.1593 89.9025 81.2891 88.9961ZM13.7793 84.4678C13.8347 84.526 13.8916 84.5827 13.9473 84.6406C13.9009 84.5923 13.8529 84.5456 13.8066 84.4971L13.7793 84.4678ZM10.2852 80.375C10.739 80.9683 11.2067 81.5507 11.6865 82.123C11.2065 81.5512 10.7396 80.9682 10.2852 80.375ZM89.7139 80.375C89.2594 80.9683 88.7925 81.5512 88.3125 82.123C88.7924 81.5507 89.2601 80.9683 89.7139 80.375ZM9.61816 79.4844C3.64838 71.3221 0.0909242 61.2841 0.00195312 50.418C0.055446 56.8116 1.3347 63.1682 3.80566 69.1338C5.33327 72.8218 7.28867 76.2939 9.61816 79.4844ZM90.4023 79.4531C92.7222 76.271 94.6715 72.8101 96.1943 69.1338C98.6653 63.1682 99.9436 56.8116 99.9971 50.418C99.9082 61.2707 96.3588 71.2963 90.4023 79.4531ZM0.0195312 48.5986C0.00440797 49.1381 -0.00136524 49.6776 0.000976562 50.2168C0.000669938 50.1446 0 50.0723 0 50C0 49.5313 0.00671929 49.0642 0.0195312 48.5986ZM99.9795 48.5986C99.9923 49.0642 100 49.5313 100 50C100 50.0723 99.9984 50.1446 99.998 50.2168C100 49.6776 99.9946 49.1381 99.9795 48.5986ZM10.2773 19.6338C5.65591 25.6792 2.4569 32.7247 0.960938 40.2451C0.428749 42.9206 0.118836 45.6234 0.0283203 48.3262C0.382764 37.5507 4.14797 27.6396 10.2773 19.6338ZM89.7217 19.6338C95.8513 27.6397 99.6162 37.5505 99.9707 48.3262C99.8802 45.6235 99.5712 42.9206 99.0391 40.2451C97.5431 32.7245 94.3433 25.6793 89.7217 19.6338ZM50 0C63.8071 0 76.3072 5.59631 85.3555 14.6445L76.0166 23.9834C69.2304 17.1972 59.8553 13 49.5 13C39.399 13 30.2309 16.9938 23.4883 23.4883L14.6445 14.6445C23.6928 5.59631 36.1929 0 50 0ZM10.1787 80.2354C10.0112 80.0151 9.84555 79.7934 9.68164 79.5703C9.84534 79.7935 10.0114 80.0149 10.1787 80.2354Z" />
</svg>
